<svg x="0" y="0" width="700" height="350" viewBox="0 0 700 350" xmlns="http://www.w3.org/2000/svg" xmlns:xlink="http://www.w3.org/1999/xlink" xmlns:fi="http://pattern.flaticon.com/"><rect x="0px" y="0px" width="100%" height="100%" opacity="1" fill="#649cff"/><defs><g transform="matrix(0.19308994710445404 0 0 0.19308994710445404 305 305)" id="L1_36"><path d="m194.105469 440.3125c0 13.253906 10.742187 24 24 24h32c13.253906 0 24-10.746094 24-24v-48h-80zm0 0" fill="#ebebeb"/><path d="m156.40625 305.566406c-6.996094-4.507812-13.59375-9.617187-19.710938-15.261718-5.222656 20.082031-24.960937 32.816406-45.410156 29.300781-20.453125-3.515625-34.804687-22.105469-33.027344-42.78125 1.777344-20.675781 19.09375-36.542969 39.847657-36.511719 1.222656 0 2.398437.253906 3.566406.359375-7.582031-17.824219-11.492187-36.992187-11.488281-56.359375h-10.183594l-5.527344 26.292969c-.550781 2.621093-2.375 4.792969-4.859375 5.785156-2.488281.996094-5.304687.679687-7.507812-.839844l-22.105469-15.238281-24 24 15.199219 22.101562c1.519531 2.207032 1.835937 5.023438.839843 7.507813-.992187 2.488281-3.164062 4.3125-5.78125 4.859375l-26.257812 5.53125v32l26.289062 5.527344c2.617188.550781 4.789063 2.375 5.785157 4.859375.992187 2.484375.675781 5.304687-.84375 7.507812l-15.230469 22.105469 24 24 22.105469-15.203125c2.203125-1.519531 5.023437-1.839844 7.511719-.84375 2.488281.992187 4.3125 3.167969 4.863281 5.789063l5.519531 26.257812h32l5.519531-26.296875c.550781-2.625 2.375-4.796875 4.863281-5.789063 2.488282-.996093 5.308594-.679687 7.511719.84375l22.105469 15.242188 25.113281-25.113281c-2.632812-12.261719-10.097656-22.945313-20.707031-29.632813zm0 0" fill="#c9dfff"/><path d="m378.105469 184.3125c-.007813-69.042969-49.019531-128.367188-116.820313-141.398438-67.800781-13.03125-135.3125 23.890626-160.914062 88.011719-25.601563 64.121094-2.09375 137.390625 56.035156 174.640625 13.320312 8.257813 21.503906 22.746094 21.699219 38.417969v32.328125c0 13.253906 10.742187 24 24 24h64c13.253906 0 24-10.746094 24-24v-31.664062c.203125-16.042969 8.550781-30.878907 22.160156-39.378907 41.070313-26.515625 65.867187-72.070312 65.839844-120.957031zm0 0" fill="#ffb41f"/><path d="m427.648438 99.679688 25.152343-18.863282-28.800781-38.402344-25.152344 18.863282c-5.175781 3.878906-12.179687 4.257812-17.746094.960937-5.566406-3.296875-8.597656-9.621093-7.6875-16.023437l4.441407-31.113282-47.519531-6.789062-4.441407 31.109375c-.910156 6.410156-5.59375 11.636719-11.863281 13.242187-6.269531 1.609376-12.890625-.71875-16.773438-5.898437l-18.859374-25.152344-38.398438 28.800781 18.855469 25.152344c3.878906 5.179688 4.257812 12.179688.960937 17.746094s-9.621094 8.597656-16.023437 7.6875l-31.113281-4.441406-6.792969 47.519531 31.121093 4.441406c6.40625.914063 11.632813 5.597657 13.238282 11.867188 1.605468 6.269531-.722656 12.890625-5.902344 16.773437l-25.144531 18.863282 28.800781 38.398437 25.144531-18.855469c5.175781-3.882812 12.183594-4.265625 17.753907-.96875 5.566406 3.296875 8.601562 9.625 7.6875 16.03125l-4.480469 31.105469 47.519531 6.792969 4.480469-31.121094c.914062-6.40625 5.597656-11.628906 11.867187-13.234375 6.269532-1.609375 12.890625.722656 16.769532 5.898437l18.867187 25.144532 38.398437-28.800782-18.871093-25.144531c-3.882813-5.175781-4.265625-12.183593-.96875-17.753906 3.296875-5.566406 9.625-8.601563 16.03125-7.683594l31.113281 4.445313 6.792969-47.519532-31.113281-4.445312c-6.402344-.917969-11.625-5.597656-13.234376-11.867188-1.605468-6.265624.71875-12.882812 5.890626-16.765624zm-91.648438 94.734374c-30.929688 0-56-25.070312-56-56 0-30.925781 25.070312-56 56-56s56 25.074219 56 56c0 30.929688-25.070312 56-56 56zm0 0" fill="#1cc8eb"/><path d="m194.105469 416.3125h80v16h-80zm0 0" fill="#9e9e9e"/><g fill="#ffaa00"><path d="m226.105469 352.3125h16v24h-16zm0 0"/><path d="m242.105469 336.3125h-16c-.007813-21.152344-13.050781-40.113281-32.800781-47.683594-39.371094-15.394531-66.722657-51.644531-70.714844-93.730468-3.992188-42.085938 16.050781-82.832032 51.824218-105.355469l8.488282 13.535156c-30.671875 19.300781-47.863282 54.230469-44.441406 90.3125 3.417968 36.078125 26.863281 67.15625 60.617187 80.351563 25.929687 9.917968 43.046875 34.808593 43.027344 62.570312zm0 0"/><path d="m394.105469 296.3125h40c4.417969 0 8 3.578125 8 8 0 4.417969-3.582031 8-8 8h-40c-4.417969 0-8-3.582031-8-8 0-4.421875 3.582031-8 8-8zm0 0"/><path d="m378.105469 344.316406c2.828125-3.394531 7.871093-3.855468 11.265625-1.027344l35.710937 29.753907c3.394531 2.828125 3.855469 7.871093 1.027344 11.265625-2.832031 3.394531-7.875 3.855468-11.269531 1.027344l-35.710938-29.753907c-3.394531-2.828125-3.851562-7.871093-1.023437-11.265625zm0 0"/><path d="m346.105469 360.3125c4.417969 0 8 3.578125 8 8v40c0 4.417969-3.582031 8-8 8s-8-3.582031-8-8v-40c0-4.421875 3.582031-8 8-8zm0 0"/><path d="m7.929688 134.601562 48.476562-12.109374c4.289062-1.070313 8.628906 1.535156 9.699219 5.820312 1.070312 4.285156-1.535157 8.625-5.824219 9.695312l-48.476562 12.109376c-4.289063 1.070312-8.628907-1.535157-9.699219-5.820313-1.070313-4.285156 1.535156-8.625 5.824219-9.695313zm0 0"/><path d="m18.101562 48.316406c2.566407-3.59375 7.5625-4.421875 11.15625-1.855468l42.976563 30.699218c3.597656 2.566406 4.429687 7.5625 1.863281 11.15625s-7.5625 4.425782-11.15625 1.855469l-42.976562-30.699219c-3.597656-2.566406-4.429688-7.5625-1.863282-11.15625zm0 0"/><path d="m89.75.304688c4.28125-1.09375 8.636719 1.488281 9.730469 5.769531l12.398437 48.496093c1.09375 4.28125-1.488281 8.640626-5.769531 9.734376s-8.636719-1.492188-9.730469-5.769532l-12.398437-48.496094c-1.09375-4.28125 1.488281-8.640624 5.769531-9.734374zm0 0"/></g></g><path d="M165,0C74.019,0,0,74.019,0,165s74.019,165,165,165c90.982,0,165-74.019,165-165S255.982,0,165,0z" transform="matrix(0.03030303120613098 0 0 0.03030303120613098 345 82.5)" id="L1_42" fill="#5066ad"/><g transform="matrix(-0.12872663140296936 0 0 0.12872663140296936 117.61985778808594 57.5)" id="L1_38"><path d="m194.105469 440.3125c0 13.253906 10.742187 24 24 24h32c13.253906 0 24-10.746094 24-24v-48h-80zm0 0" fill="#ebebeb"/><path d="m156.40625 305.566406c-6.996094-4.507812-13.59375-9.617187-19.710938-15.261718-5.222656 20.082031-24.960937 32.816406-45.410156 29.300781-20.453125-3.515625-34.804687-22.105469-33.027344-42.78125 1.777344-20.675781 19.09375-36.542969 39.847657-36.511719 1.222656 0 2.398437.253906 3.566406.359375-7.582031-17.824219-11.492187-36.992187-11.488281-56.359375h-10.183594l-5.527344 26.292969c-.550781 2.621093-2.375 4.792969-4.859375 5.785156-2.488281.996094-5.304687.679687-7.507812-.839844l-22.105469-15.238281-24 24 15.199219 22.101562c1.519531 2.207032 1.835937 5.023438.839843 7.507813-.992187 2.488281-3.164062 4.3125-5.78125 4.859375l-26.257812 5.53125v32l26.289062 5.527344c2.617188.550781 4.789063 2.375 5.785157 4.859375.992187 2.484375.675781 5.304687-.84375 7.507812l-15.230469 22.105469 24 24 22.105469-15.203125c2.203125-1.519531 5.023437-1.839844 7.511719-.84375 2.488281.992187 4.3125 3.167969 4.863281 5.789063l5.519531 26.257812h32l5.519531-26.296875c.550781-2.625 2.375-4.796875 4.863281-5.789063 2.488282-.996093 5.308594-.679687 7.511719.84375l22.105469 15.242188 25.113281-25.113281c-2.632812-12.261719-10.097656-22.945313-20.707031-29.632813zm0 0" fill="#c9dfff"/><path d="m378.105469 184.3125c-.007813-69.042969-49.019531-128.367188-116.820313-141.398438-67.800781-13.03125-135.3125 23.890626-160.914062 88.011719-25.601563 64.121094-2.09375 137.390625 56.035156 174.640625 13.320312 8.257813 21.503906 22.746094 21.699219 38.417969v32.328125c0 13.253906 10.742187 24 24 24h64c13.253906 0 24-10.746094 24-24v-31.664062c.203125-16.042969 8.550781-30.878907 22.160156-39.378907 41.070313-26.515625 65.867187-72.070312 65.839844-120.957031zm0 0" fill="#ffb41f"/><path d="m427.648438 99.679688 25.152343-18.863282-28.800781-38.402344-25.152344 18.863282c-5.175781 3.878906-12.179687 4.257812-17.746094.960937-5.566406-3.296875-8.597656-9.621093-7.6875-16.023437l4.441407-31.113282-47.519531-6.789062-4.441407 31.109375c-.910156 6.410156-5.59375 11.636719-11.863281 13.242187-6.269531 1.609376-12.890625-.71875-16.773438-5.898437l-18.859374-25.152344-38.398438 28.800781 18.855469 25.152344c3.878906 5.179688 4.257812 12.179688.960937 17.746094s-9.621094 8.597656-16.023437 7.6875l-31.113281-4.441406-6.792969 47.519531 31.121093 4.441406c6.40625.914063 11.632813 5.597657 13.238282 11.867188 1.605468 6.269531-.722656 12.890625-5.902344 16.773437l-25.144531 18.863282 28.800781 38.398437 25.144531-18.855469c5.175781-3.882812 12.183594-4.265625 17.753907-.96875 5.566406 3.296875 8.601562 9.625 7.6875 16.03125l-4.480469 31.105469 47.519531 6.792969 4.480469-31.121094c.914062-6.40625 5.597656-11.628906 11.867187-13.234375 6.269532-1.609375 12.890625.722656 16.769532 5.898437l18.867187 25.144532 38.398437-28.800782-18.871093-25.144531c-3.882813-5.175781-4.265625-12.183593-.96875-17.753906 3.296875-5.566406 9.625-8.601563 16.03125-7.683594l31.113281 4.445313 6.792969-47.519532-31.113281-4.445312c-6.402344-.917969-11.625-5.597656-13.234376-11.867188-1.605468-6.265624.71875-12.882812 5.890626-16.765624zm-91.648438 94.734374c-30.929688 0-56-25.070312-56-56 0-30.925781 25.070312-56 56-56s56 25.074219 56 56c0 30.929688-25.070312 56-56 56zm0 0" fill="#1cc8eb"/><path d="m194.105469 416.3125h80v16h-80zm0 0" fill="#9e9e9e"/><g fill="#ffaa00"><path d="m226.105469 352.3125h16v24h-16zm0 0"/><path d="m242.105469 336.3125h-16c-.007813-21.152344-13.050781-40.113281-32.800781-47.683594-39.371094-15.394531-66.722657-51.644531-70.714844-93.730468-3.992188-42.085938 16.050781-82.832032 51.824218-105.355469l8.488282 13.535156c-30.671875 19.300781-47.863282 54.230469-44.441406 90.3125 3.417968 36.078125 26.863281 67.15625 60.617187 80.351563 25.929687 9.917968 43.046875 34.808593 43.027344 62.570312zm0 0"/><path d="m394.105469 296.3125h40c4.417969 0 8 3.578125 8 8 0 4.417969-3.582031 8-8 8h-40c-4.417969 0-8-3.582031-8-8 0-4.421875 3.582031-8 8-8zm0 0"/><path d="m378.105469 344.316406c2.828125-3.394531 7.871093-3.855468 11.265625-1.027344l35.710937 29.753907c3.394531 2.828125 3.855469 7.871093 1.027344 11.265625-2.832031 3.394531-7.875 3.855468-11.269531 1.027344l-35.710938-29.753907c-3.394531-2.828125-3.851562-7.871093-1.023437-11.265625zm0 0"/><path d="m346.105469 360.3125c4.417969 0 8 3.578125 8 8v40c0 4.417969-3.582031 8-8 8s-8-3.582031-8-8v-40c0-4.421875 3.582031-8 8-8zm0 0"/><path d="m7.929688 134.601562 48.476562-12.109374c4.289062-1.070313 8.628906 1.535156 9.699219 5.820312 1.070312 4.285156-1.535157 8.625-5.824219 9.695312l-48.476562 12.109376c-4.289063 1.070312-8.628907-1.535157-9.699219-5.820313-1.070313-4.285156 1.535156-8.625 5.824219-9.695313zm0 0"/><path d="m18.101562 48.316406c2.566407-3.59375 7.5625-4.421875 11.15625-1.855468l42.976563 30.699218c3.597656 2.566406 4.429687 7.5625 1.863281 11.15625s-7.5625 4.425782-11.15625 1.855469l-42.976562-30.699219c-3.597656-2.566406-4.429688-7.5625-1.863282-11.15625zm0 0"/><path d="m89.75.304688c4.28125-1.09375 8.636719 1.488281 9.730469 5.769531l12.398437 48.496093c1.09375 4.28125-1.488281 8.640626-5.769531 9.734376s-8.636719-1.492188-9.730469-5.769532l-12.398437-48.496094c-1.09375-4.28125 1.488281-8.640624 5.769531-9.734374zm0 0"/></g></g><g transform="matrix(0.0853019580245018 0 0 0.0853019580245018 242.5 67.5)" id="L1_39"><path d="m444.921875.460938h-160c-8.835937 0-16 7.164062-16 16v224c0 8.835937 7.164063 16 16 16h160c8.835937 0 16-7.164063 16-16v-224c0-8.835938-7.164063-16-16-16zm-144 32h128v32h-128zm0 0" fill="#ebebeb"/><path d="m300.921875 32.460938h128v32h-128zm0 0" fill="#74d5e8"/><path d="m297.890625 419.460938-20.433594-18.511719c7.425781-7.871094 13.050781-17.265625 16.480469-27.527344l.136719-.417969c2.148437-6.628906 3.191406-13.570312 3.089843-20.542968h-83.730468c-14.859375 29.949218-48.378906 45.730468-80.929688 38.101562-32.550781-7.632812-55.566406-36.667969-55.566406-70.101562 0-33.433594 23.015625-62.46875 55.566406-70.097657 32.550782-7.632812 66.070313 8.148438 80.929688 38.097657h56.878906l-89.390625-152 56-128-56 24 1.847656-4.304688 6.152344-19.695312-56 24-48-32 8 32-48-8 56 112-92.960937 183.753906c-5.660157 10.707031-8.320313 22.742187-7.703126 34.839844 1.203126 17.183593 8.335938 33.421874 20.175782 45.933593l-17.167969 18.472657c-4.191406 5.242187-5.054687 13 1.65625 13h288c3.007813-.152344 5.644531-2.066407 6.71875-4.882813 1.074219-2.8125.386719-5.996094-1.75-8.117187zm0 0" fill="#a3771d"/><g fill="#ffb41f"><path d="m460.921875 88.460938h-192v16h88v64h-88v16h88v72h16v-72h88v-16h-88v-64h88zm0 0"/><path d="m308.921875 112.460938v16h-16v16h16v16h16v-16h16v-16h-16v-16zm0 0"/><path d="m388.921875 128.460938h48v16h-48zm0 0"/><path d="m328.234375 194.804688-11.3125 11.3125-11.3125-11.3125-11.3125 11.3125 11.3125 11.3125-11.3125 11.320312 11.3125 11.3125 11.3125-11.320312 11.3125 11.320312 11.3125-11.3125-11.3125-11.320312 11.3125-11.3125zm0 0"/><path d="m388.921875 208.460938h48v16h-48zm0 0"/><path d="m404.921875 228.460938h16v8h-16zm0 0"/><path d="m404.921875 196.460938h16v8h-16zm0 0"/></g><path d="m190.332031 152.460938-9.410156-16 7-16h-13.765625l6.765625-88-20.304687 88h-40.613282l-27.082031-88 13.535156 88h-13.535156l8 16-8.09375 16h10.941406l-15.734375 52.472656c-2.558594 8.535156 1.007813 17.714844 8.65625 22.285156 7.648438 4.570312 17.421875 3.359375 23.726563-2.933594l18.160156-18.167968-11.3125-11.3125-18.167969 18.160156c-1.117187 1.121094-2.851562 1.339844-4.210937.527344s-1.992188-2.445313-1.53125-3.957032l17.117187-57.074218h31.808594l12.800781 57.734374 15.617188-3.46875-12.03125-54.265624zm0 0" fill="#8f6819"/><path d="m245.722656 246.589844 2.601563 20.800781c.84375 6.988281 1.175781 14.03125 1 21.070313h20.988281zm0 0" fill="#8f6819"/><path d="m277.457031 400.949219c7.425781-7.871094 13.050781-17.265625 16.480469-27.527344l.136719-.417969c2.148437-6.628906 3.191406-13.570312 3.089843-20.542968h-64.449218c-21.511719 40.785156-61.273438 68.789062-106.921875 75.304687l-32.871094 4.695313h200c3.007813-.152344 5.644531-2.066407 6.71875-4.882813 1.074219-2.8125.386719-5.996094-1.75-8.117187zm0 0" fill="#8f6819"/><path d="m270.3125 288.460938h-56.878906c-14.859375-29.949219-48.378906-45.730469-80.929688-38.097657-32.550781 7.628907-55.566406 36.664063-55.566406 70.097657 0 33.433593 23.015625 62.46875 55.566406 70.101562 32.550782 7.628906 66.070313-8.152344 80.929688-38.101562h167.488281v-16h16v-24c0-13.253907 10.746094-24 24-24zm0 0" fill="#ffb41f"/><path d="m148.921875 296.460938h24v-16h-16v-8h-16v9.472656c-11.011719 3.878906-17.621094 15.132812-15.640625 26.640625 1.976562 11.507812 11.964844 19.910156 23.640625 19.886719 4.417969 0 8 3.582031 8 8 0 4.417968-3.582031 8-8 8h-24v16h16v8h16v-9.472657c11.011719-3.878906 17.621094-15.132812 15.644531-26.640625-1.980468-11.507812-11.96875-19.910156-23.644531-19.886718-4.417969 0-8-3.582032-8-8 0-4.417969 3.582031-8 8-8zm0 0" fill="#ffdd99"/><path d="m212.921875 312.460938h16v16h-16zm0 0" fill="#ffdd99"/><path d="m244.921875 312.460938h24v16h-24zm0 0" fill="#ffdd99"/><path d="m284.921875 312.460938h72v16h-72zm0 0" fill="#ffdd99"/><path d="m460.921875 328.460938h-8v-16c0-17.671876-14.328125-32-32-32s-32 14.328124-32 32v16h-8c-4.417969 0-8 3.582031-8 8v64c0 4.417968 3.582031 8 8 8h80c4.417969 0 8-3.582032 8-8v-64c0-4.417969-3.582031-8-8-8zm-56-16c0-8.835938 7.164063-16 16-16s16 7.164062 16 16v16h-32zm0 0" fill="#74d5e8"/><path d="m420.921875 360.460938c4.417969 0 8 3.582031 8 8 0 4.417968-3.582031 8-8 8s-8-3.582032-8-8c0-4.417969 3.582031-8 8-8zm0 0" fill="#ebebeb"/><path d="m380.921875 408.460938h63.199219c-28.910156-19.753907-51.570313-47.363282-65.300782-79.574219-3.453124.902343-5.871093 4.007812-5.898437 7.574219v64c0 4.417968 3.582031 8 8 8zm0 0" fill="#6cc7d9"/></g><g transform="matrix(0.043103449046611786 0 0 0.043103449046611786 340 165)" id="L1_40"><path d="m272 357.503906c.003906-25.128906-20.367188-45.503906-45.496094-45.503906h-42.503906c0 13.253906-10.746094 24-24 24h-48c-13.253906 0-24-10.746094-24-24h-42.496094c-25.132812-.003906-45.50781225 20.371094-45.503906 45.503906v106.496094h272zm0 0" fill="#d9d9d9"/><path d="m170.910156 367.273438c-6.34375-4.230469-14.789062-3.390626-20.183594 2l-3.414062 3.414062c-6.246094 6.25-6.246094 16.375 0 22.625l36.6875 36.6875 36.6875-36.6875c6.246094-6.25 6.246094-16.375 0-22.625l-3.414062-3.414062c-5.394532-5.390626-13.839844-6.230469-20.183594-2l-13.089844 8.726562zm0 0" fill="#1cc8eb"/><path d="m96 264v40c0 4.417969-3.582031 8-8 8 0 13.253906 10.746094 24 24 24h48c13.253906 0 24-10.746094 24-24-4.417969 0-8-3.582031-8-8v-40c26.535156-11.148438 47.292969-32.757812 57.367188-59.71875-22.800782-30.335938-30.769532-69.308594-21.710938-106.160156-7.125-1.332032-14.351562-2.035156-21.601562-2.105469-21.070313-.023437-41.816407 5.179687-60.382813 15.144531 1.585937-5.3125 3.675781-10.460937 6.230469-15.375l-15.902344-31.785156-32 32-56 16v56c0 41.984375 25.246094 79.851562 64 96zm0 0" fill="#fff5e0"/><path d="m120 64 15.886719 31.769531c18.34375-36.078125 59.066406-54.828125 98.402343-45.3125 1.03125-1.34375 2.109376-2.640625 3.199219-3.945312-7.808593-27.496094-32.90625-46.4765628-61.488281-46.511719h-80c-35.347656 0-64 28.652344-64 64v48l56-16zm0 0" fill="#a3771d"/><path d="m336 0c-38.128906 0-74.257812 17.0625-98.480469 46.511719-1.078125 1.304687-2.160156 2.601562-3.199219 3.945312-39.335937-9.515625-80.058593 9.234375-98.398437 45.3125l.078125.230469-.113281-.230469c-2.558594 4.914063-4.644531 10.0625-6.230469 15.375 18.566406-9.964843 39.3125-15.167969 60.382812-15.144531 7.25.070312 14.476563.773438 21.601563 2.105469-9.058594 36.851562-1.089844 75.824219 21.710937 106.160156 35.933594 48.347656 100.730469 65.082031 155.582032 40.175781 54.855468-24.902344 84.902344-84.699218 72.152344-143.578125-12.75-58.875-64.84375-100.8828122-125.085938-100.863281zm0 0" fill="#74d5e8"/><path d="m296 104-8 112h96l-8-112zm0 0" fill="#ffb41f"/><path d="m112 336h48c13.253906 0 24-10.746094 24-24-4.417969 0-8-3.582031-8-8v-40l-83.136719 62.398438c4.511719 6.039062 11.601563 9.59375 19.136719 9.601562zm0 0" fill="#faf0dc"/><path d="m336 56c-17.671875 0-32 14.328125-32 32v16h16v-16c0-8.835938 7.164062-16 16-16s16 7.164062 16 16v16h16v-16c0-17.671875-14.328125-32-32-32zm0 0" fill="#a3771d"/><g fill="#fff5e0"><path d="m280 48h-16v8h-8v16h8v8h16v-8h8v-16h-8zm0 0"/><path d="m440 112h-8v-8h-16v8h-8v16h8v8h16v-8h8zm0 0"/><path d="m384 64h16v16h-16zm0 0"/><path d="m328 24h16v16h-16zm0 0"/></g><path d="m96 152c4.417969 0 8 3.582031 8 8s-3.582031 8-8 8-8-3.582031-8-8 3.582031-8 8-8zm0 0" fill="#594110"/><path d="m176 152c4.417969 0 8 3.582031 8 8s-3.582031 8-8 8-8-3.582031-8-8 3.582031-8 8-8zm0 0" fill="#594110"/><path d="m120 208h32v8c0 8.835938-7.164062 16-16 16s-16-7.164062-16-16zm0 0" fill="#ffae82"/></g><g transform="matrix(0.04237287864089012 0 0 0.04237287864089012 165 165)" id="L1_41"><path d="m144 296c8.835938 0 16-7.164062 16-16v-8h-80v8c0 8.835938 7.164062 16 16 16zm0 0" fill="#8c8c8c"/><path d="m80 248h80v24h-80zm0 0" fill="#d9d9d9"/><path d="m160 208c-10.257812 3.925781-21.042969 6.3125-32 7.078125v.410156-.410156c-2.664062.195313-5.320312.410156-8 .410156s-5.367188-.214843-8-.410156v.410156-.410156c-10.957031-.765625-21.742188-3.152344-32-7.078125v40h80zm0 0" fill="#8c8c8c"/><path d="m121.351562 472h-97.351562c-13.253906 0-24-10.746094-24-24s10.746094-24 24-24h112c4.417969 0 8-3.582031 8-8s-3.582031-8-8-8h-112c-13.253906 0-24-10.746094-24-24s10.746094-24 24-24h56c17.671875 0 32-14.328125 32-32v-24h16v24c-.027344 26.5-21.5 47.972656-48 48h-56c-4.417969 0-8 3.582031-8 8s3.582031 8 8 8h112c13.253906 0 24 10.746094 24 24s-10.746094 24-24 24h-112c-4.417969 0-8 3.582031-8 8s3.582031 8 8 8h97.351562c29.074219 0 57.597657-7.902344 82.527344-22.855469l8.242188 13.710938c-27.417969 16.453125-58.792969 25.144531-90.769532 25.144531zm0 0" fill="#8c8c8c"/><path d="m136 312v-16h-32v16c0 8.835938 7.164062 16 16 16s16-7.164062 16-16zm0 0" fill="#d9d9d9"/><path d="m472 312c0 75.109375-60.890625 136-136 136s-136-60.890625-136-136 60.890625-136 136-136 136 60.890625 136 136zm0 0" fill="#8c8c8c"/><path d="m440 312c0 57.4375-46.5625 104-104 104s-104-46.5625-104-104 46.5625-104 104-104 104 46.5625 104 104zm0 0" fill="#d9d9d9"/><path d="m232 112c0 61.855469-50.144531 112-112 112s-112-50.144531-112-112 50.144531-112 112-112 112 50.144531 112 112zm0 0" fill="#ffb41f"/><path d="m400 312c0 35.347656-28.652344 64-64 64s-64-28.652344-64-64 28.652344-64 64-64 64 28.652344 64 64zm0 0" fill="#1cc8eb"/><path d="m360 312c0 13.253906-10.746094 24-24 24s-24-10.746094-24-24 10.746094-24 24-24 24 10.746094 24 24zm0 0" fill="#6ed6eb"/><path d="m160 111.28125c-17.425781-.089844-31.6875 13.847656-32 31.269531l-1.519531 16.730469h-13.015625l-1.464844-16c0-17.675781-14.328125-32-32-32s-32 14.324219-32 32c0 17.671875 14.328125 32 32 32h18.871094l4.304687 47.320312c5.355469.855469 10.769531 1.324219 16.191407 1.398438l-4.445313-48.6875h10.132813l-4.421876 48.6875c5.417969-.066406 10.828126-.523438 16.183594-1.367188l4.289063-47.320312h18.894531c17.671875 0 32-14.328125 32-32s-14.328125-32-32-32zm-80 48c-8.835938 0-16-7.164062-16-16s7.164062-16 16-16c4.351562.058594 8.496094 1.863281 11.503906 5.007812 3.007813 3.140626 4.628906 7.363282 4.496094 11.710938l1.390625 15.28125zm80 0h-17.449219l1.449219-16c0-8.835938 7.164062-16 16-16s16 7.164062 16 16-7.164062 16-16 16zm0 0" fill="#ffce6b"/><path d="m406 162.3125c-42.324219-24.195312-92.46875-30.773438-139.601562-18.3125-2.585938.695312-5.347657.046875-7.355469-1.722656-2.011719-1.765625-3.003907-4.425782-2.644531-7.078125 5.753906-39.703125-3.929688-80.097657-27.054688-112.878907l13.121094-9.160156c20.59375 29.476563 31.605468 64.578125 31.535156 100.535156 0 3.898438-.167969 7.890626-.503906 12.144532 48.027344-9.800782 97.980468-1.757813 140.503906 22.625zm0 0" fill="#ffaa00"/><path d="m452 200c-5.089844-5.765625-10.535156-11.210938-16.304688-16.304688l10.585938-12c6.265625 5.535157 12.183594 11.449219 17.71875 17.710938zm0 0" fill="#ffaa00"/><path d="m264 384-40-8-40 56 24 8 8 24 55.992188-40zm0 0" fill="#ffb41f"/><path d="m221.65625 437.65625-11.3125-11.3125 117.65625-114.34375h8v8zm0 0" fill="#a3771d"/><path d="m120 0c-27.058594-.0117188-53.199219 9.820312-73.542969 27.664062 50.421875-24.984374 111.558594-8.628906 142.769531 38.199219 31.207032 46.824219 22.78125 109.546875-19.683593 146.472657 46.679687-23.011719 71.339843-75.15625 59.515625-125.835938-11.824219-50.679688-57.015625-86.5234375-109.058594-86.5zm0 0" fill="#ffaa00"/></g><path d="M165,0C74.019,0,0,74.019,0,165s74.019,165,165,165c90.982,0,165-74.019,165-165S255.982,0,165,0z" transform="matrix(0.03030303120613098 0 0 0.03030303120613098 82.5 257.5)" id="L1_43" fill="#96058a"/><g transform="matrix(-0.12931033968925476 0 0 0.12931033968925476 201.89654541015625 232.5)" id="L1_44"><path d="m272 357.503906c.003906-25.128906-20.367188-45.503906-45.496094-45.503906h-42.503906c0 13.253906-10.746094 24-24 24h-48c-13.253906 0-24-10.746094-24-24h-42.496094c-25.132812-.003906-45.50781225 20.371094-45.503906 45.503906v106.496094h272zm0 0" fill="#d9d9d9"/><path d="m170.910156 367.273438c-6.34375-4.230469-14.789062-3.390626-20.183594 2l-3.414062 3.414062c-6.246094 6.25-6.246094 16.375 0 22.625l36.6875 36.6875 36.6875-36.6875c6.246094-6.25 6.246094-16.375 0-22.625l-3.414062-3.414062c-5.394532-5.390626-13.839844-6.230469-20.183594-2l-13.089844 8.726562zm0 0" fill="#1cc8eb"/><path d="m96 264v40c0 4.417969-3.582031 8-8 8 0 13.253906 10.746094 24 24 24h48c13.253906 0 24-10.746094 24-24-4.417969 0-8-3.582031-8-8v-40c26.535156-11.148438 47.292969-32.757812 57.367188-59.71875-22.800782-30.335938-30.769532-69.308594-21.710938-106.160156-7.125-1.332032-14.351562-2.035156-21.601562-2.105469-21.070313-.023437-41.816407 5.179687-60.382813 15.144531 1.585937-5.3125 3.675781-10.460937 6.230469-15.375l-15.902344-31.785156-32 32-56 16v56c0 41.984375 25.246094 79.851562 64 96zm0 0" fill="#fff5e0"/><path d="m120 64 15.886719 31.769531c18.34375-36.078125 59.066406-54.828125 98.402343-45.3125 1.03125-1.34375 2.109376-2.640625 3.199219-3.945312-7.808593-27.496094-32.90625-46.4765628-61.488281-46.511719h-80c-35.347656 0-64 28.652344-64 64v48l56-16zm0 0" fill="#a3771d"/><path d="m336 0c-38.128906 0-74.257812 17.0625-98.480469 46.511719-1.078125 1.304687-2.160156 2.601562-3.199219 3.945312-39.335937-9.515625-80.058593 9.234375-98.398437 45.3125l.078125.230469-.113281-.230469c-2.558594 4.914063-4.644531 10.0625-6.230469 15.375 18.566406-9.964843 39.3125-15.167969 60.382812-15.144531 7.25.070312 14.476563.773438 21.601563 2.105469-9.058594 36.851562-1.089844 75.824219 21.710937 106.160156 35.933594 48.347656 100.730469 65.082031 155.582032 40.175781 54.855468-24.902344 84.902344-84.699218 72.152344-143.578125-12.75-58.875-64.84375-100.8828122-125.085938-100.863281zm0 0" fill="#74d5e8"/><path d="m296 104-8 112h96l-8-112zm0 0" fill="#ffb41f"/><path d="m112 336h48c13.253906 0 24-10.746094 24-24-4.417969 0-8-3.582031-8-8v-40l-83.136719 62.398438c4.511719 6.039062 11.601563 9.59375 19.136719 9.601562zm0 0" fill="#faf0dc"/><path d="m336 56c-17.671875 0-32 14.328125-32 32v16h16v-16c0-8.835938 7.164062-16 16-16s16 7.164062 16 16v16h16v-16c0-17.671875-14.328125-32-32-32zm0 0" fill="#a3771d"/><g fill="#fff5e0"><path d="m280 48h-16v8h-8v16h8v8h16v-8h8v-16h-8zm0 0"/><path d="m440 112h-8v-8h-16v8h-8v16h8v8h16v-8h8zm0 0"/><path d="m384 64h16v16h-16zm0 0"/><path d="m328 24h16v16h-16zm0 0"/></g><path d="m96 152c4.417969 0 8 3.582031 8 8s-3.582031 8-8 8-8-3.582031-8-8 3.582031-8 8-8zm0 0" fill="#594110"/><path d="m176 152c4.417969 0 8 3.582031 8 8s-3.582031 8-8 8-8-3.582031-8-8 3.582031-8 8-8zm0 0" fill="#594110"/><path d="m120 208h32v8c0 8.835938-7.164062 16-16 16s-16-7.164062-16-16zm0 0" fill="#ffae82"/></g></defs><g fi:class="KUsePattern"><pattern id="pattern_L1_36" width="350" height="350" patternUnits="userSpaceOnUse"><use xlink:href="#L1_36" x="-350" y="-350"/><use xlink:href="#L1_36" x="0" y="-350"/><use xlink:href="#L1_36" x="350" y="-350"/><use xlink:href="#L1_36" x="-350" y="0"/><use xlink:href="#L1_36" x="0" y="0"/><use xlink:href="#L1_36" x="350" y="0"/><use xlink:href="#L1_36" x="-350" y="350"/><use xlink:href="#L1_36" x="0" y="350"/><use xlink:href="#L1_36" x="350" y="350"/></pattern><rect x="0" y="0" width="100%" height="100%" fill="url(#pattern_L1_36)"/></g><g fi:class="KUsePattern"><pattern id="pattern_L1_42" width="350" height="350" patternUnits="userSpaceOnUse"><use xlink:href="#L1_42" x="-350" y="-350"/><use xlink:href="#L1_42" x="0" y="-350"/><use xlink:href="#L1_42" x="350" y="-350"/><use xlink:href="#L1_42" x="-350" y="0"/><use xlink:href="#L1_42" x="0" y="0"/><use xlink:href="#L1_42" x="350" y="0"/><use xlink:href="#L1_42" x="-350" y="350"/><use xlink:href="#L1_42" x="0" y="350"/><use xlink:href="#L1_42" x="350" y="350"/></pattern><rect x="0" y="0" width="100%" height="100%" fill="url(#pattern_L1_42)"/></g><g fi:class="KUsePattern"><pattern id="pattern_L1_38" width="350" height="350" patternUnits="userSpaceOnUse"><use xlink:href="#L1_38" x="-350" y="-350"/><use xlink:href="#L1_38" x="0" y="-350"/><use xlink:href="#L1_38" x="350" y="-350"/><use xlink:href="#L1_38" x="-350" y="0"/><use xlink:href="#L1_38" x="0" y="0"/><use xlink:href="#L1_38" x="350" y="0"/><use xlink:href="#L1_38" x="-350" y="350"/><use xlink:href="#L1_38" x="0" y="350"/><use xlink:href="#L1_38" x="350" y="350"/></pattern><rect x="0" y="0" width="100%" height="100%" fill="url(#pattern_L1_38)"/></g><g fi:class="KUsePattern"><pattern id="pattern_L1_39" width="350" height="350" patternUnits="userSpaceOnUse"><use xlink:href="#L1_39" x="-350" y="-350"/><use xlink:href="#L1_39" x="0" y="-350"/><use xlink:href="#L1_39" x="350" y="-350"/><use xlink:href="#L1_39" x="-350" y="0"/><use xlink:href="#L1_39" x="0" y="0"/><use xlink:href="#L1_39" x="350" y="0"/><use xlink:href="#L1_39" x="-350" y="350"/><use xlink:href="#L1_39" x="0" y="350"/><use xlink:href="#L1_39" x="350" y="350"/></pattern><rect x="0" y="0" width="100%" height="100%" fill="url(#pattern_L1_39)"/></g><g fi:class="KUsePattern"><pattern id="pattern_L1_40" width="350" height="350" patternUnits="userSpaceOnUse"><use xlink:href="#L1_40" x="-350" y="-350"/><use xlink:href="#L1_40" x="0" y="-350"/><use xlink:href="#L1_40" x="350" y="-350"/><use xlink:href="#L1_40" x="-350" y="0"/><use xlink:href="#L1_40" x="0" y="0"/><use xlink:href="#L1_40" x="350" y="0"/><use xlink:href="#L1_40" x="-350" y="350"/><use xlink:href="#L1_40" x="0" y="350"/><use xlink:href="#L1_40" x="350" y="350"/></pattern><rect x="0" y="0" width="100%" height="100%" fill="url(#pattern_L1_40)"/></g><g fi:class="KUsePattern"><pattern id="pattern_L1_41" width="350" height="350" patternUnits="userSpaceOnUse"><use xlink:href="#L1_41" x="-350" y="-350"/><use xlink:href="#L1_41" x="0" y="-350"/><use xlink:href="#L1_41" x="350" y="-350"/><use xlink:href="#L1_41" x="-350" y="0"/><use xlink:href="#L1_41" x="0" y="0"/><use xlink:href="#L1_41" x="350" y="0"/><use xlink:href="#L1_41" x="-350" y="350"/><use xlink:href="#L1_41" x="0" y="350"/><use xlink:href="#L1_41" x="350" y="350"/></pattern><rect x="0" y="0" width="100%" height="100%" fill="url(#pattern_L1_41)"/></g><g fi:class="KUsePattern"><pattern id="pattern_L1_43" width="350" height="350" patternUnits="userSpaceOnUse"><use xlink:href="#L1_43" x="-350" y="-350"/><use xlink:href="#L1_43" x="0" y="-350"/><use xlink:href="#L1_43" x="350" y="-350"/><use xlink:href="#L1_43" x="-350" y="0"/><use xlink:href="#L1_43" x="0" y="0"/><use xlink:href="#L1_43" x="350" y="0"/><use xlink:href="#L1_43" x="-350" y="350"/><use xlink:href="#L1_43" x="0" y="350"/><use xlink:href="#L1_43" x="350" y="350"/></pattern><rect x="0" y="0" width="100%" height="100%" fill="url(#pattern_L1_43)"/></g><g fi:class="KUsePattern"><pattern id="pattern_L1_44" width="350" height="350" patternUnits="userSpaceOnUse"><use xlink:href="#L1_44" x="-350" y="-350"/><use xlink:href="#L1_44" x="0" y="-350"/><use xlink:href="#L1_44" x="350" y="-350"/><use xlink:href="#L1_44" x="-350" y="0"/><use xlink:href="#L1_44" x="0" y="0"/><use xlink:href="#L1_44" x="350" y="0"/><use xlink:href="#L1_44" x="-350" y="350"/><use xlink:href="#L1_44" x="0" y="350"/><use xlink:href="#L1_44" x="350" y="350"/></pattern><rect x="0" y="0" width="100%" height="100%" fill="url(#pattern_L1_44)"/></g></svg>